<svg version="1.1" xmlns="http://www.w3.org/2000/svg" viewBox="0 0 666.4285714285714 518.5714285714287" width="1999.2857142857142" height="1555.714285714286">
  <!-- svg-source:excalidraw -->
  
  <defs>
    <style>
      @font-face {
        font-family: "Virgil";
        src: url("https://excalidraw.com/Virgil.woff2");
      }
      @font-face {
        font-family: "Cascadia";
        src: url("https://excalidraw.com/Cascadia.woff2");
      }
    </style>
  </defs>
  <rect x="0" y="0" width="666.4285714285714" height="518.5714285714287" fill="#ffffff"></rect><g stroke-linecap="round" transform="translate(39.51788018056948 162.81103034179353) rotate(0 298.5 155.1590038314176)"><path d="M0.52 -0.09 C140.1 1.6, 279.97 0.86, 597.5 0.7 M-0.23 0.28 C147.01 -1.66, 293.57 -1.1, 596.63 -0.35 M595.86 -1.25 C597.28 97.99, 597.83 197.71, 597.56 311.23 M597.5 -0.49 C597.85 89.16, 597.64 179.5, 596.52 309.63 M596.64 310.38 C433.26 311.09, 268.07 310.33, -0.51 310.78 M596.89 310.49 C424.58 309.23, 252.48 308.66, 0.14 310.06 M-0.6 310.39 C1.36 186.31, -0.16 63.79, -1.01 -0.9 M0.47 310.93 C-0.75 201.48, -0.85 91.95, -0.48 -0.69" stroke="#000000" stroke-width="1" fill="none"></path></g><g transform="translate(65.35258187733973 186.9976751146467) rotate(0 17.91762452107281 9.530651340996172)"><text x="0" y="13.061302681992348" font-family="Virgil, Segoe UI Emoji" font-size="15.249042145593885px" fill="#000000" text-anchor="start" style="white-space: pre;" direction="ltr">vnet1</text></g><g transform="translate(65.35258187733973 208.34633411847682) rotate(0 40.02873563218395 9.530651340996172)"><text x="0" y="13.061302681992348" font-family="Virgil, Segoe UI Emoji" font-size="15.249042145593894px" fill="#000000" text-anchor="start" style="white-space: pre;" direction="ltr">10.0.0.0/16</text></g><g stroke-linecap="round" transform="translate(305.2168402243574 198.54994659795145) rotate(0 50.63191023535859 53.27908749706772)"><path d="M0.79 0.11 C35.24 -2.1, 68.74 0.2, 99.43 0.12 M0.3 0.46 C31.3 -1.86, 63.48 -0.4, 100.94 -0.73 M100.05 1.47 C100.39 23.03, 100.52 44.78, 99.83 105.98 M101.76 0.18 C102.38 35.16, 101.86 71.53, 101.53 106.39 M102.74 106.86 C66.04 108.43, 33.29 108.85, 0.03 106.1 M101.14 105.75 C77.15 105.59, 50.76 105.58, -0.57 106.26 M0.09 104.76 C1.09 64.59, 1.22 25.08, -0.17 0.46 M-0.23 106.9 C-0.58 70.27, 0.7 32.15, -0.61 -0.86" stroke="#000000" stroke-width="1" fill="none"></path></g><g stroke-linecap="round" transform="translate(108.07398308150039 335.6928037408086) rotate(0 56.70333880678709 59.350516068496376)"><path d="M-0.73 -1.47 C39.71 0.93, 81.92 -0.7, 113.25 -0.78 M0.33 -0.98 C32.72 -0.54, 64.67 -0.8, 112.65 0.63 M113.95 0.33 C115.2 29.85, 112.47 57.08, 114.1 117.58 M113.57 -0.58 C113.46 42.74, 112.13 84.71, 114.3 118.4 M112.21 119.41 C85.49 118.64, 54.97 117.34, 0.79 119.59 M113.29 119.67 C83.19 118.03, 52.23 117.47, 0.38 117.95 M-0.06 120.21 C-1.68 88.15, 1.37 59.19, -0.66 -0.02 M0.61 118.55 C-0.06 93.06, -1 67.82, -0.26 -0.01" stroke="#000000" stroke-width="1" fill="none"></path></g><g stroke-linecap="round" transform="translate(464.5025545100717 336.4070894550943) rotate(0 56.70333880678709 59.350516068496376)"><path d="M-1.5 -0.9 C25.97 1.22, 51.25 2.81, 114.84 0.3 M0.22 0.95 C43.8 1.06, 86.72 0.96, 113.95 0.71 M112.31 0.21 C112.75 36.98, 112.87 76.31, 114.05 119.79 M113.79 -0.9 C113.44 45.91, 114.73 92.11, 113.8 118.08 M112.16 117.21 C68.6 117.79, 25.9 118.66, -1.22 118.24 M112.52 118.89 C71.17 118.85, 27.08 118.06, -0.51 118.38 M-0.03 117.44 C-0.83 90.32, 1.84 60.78, -0.23 0.52 M0.35 117.85 C-0.07 72.13, 0.21 23.96, 0.31 -0.58" stroke="#000000" stroke-width="1" fill="none"></path></g><g transform="translate(323.85262918468936 272.3798569107161) rotate(0 16.143419593542717 5.8490650701241975)"><text x="16.143419593542735" y="8.698130140248368" font-family="Virgil, Segoe UI Emoji" font-size="9.358504112198686px" fill="#000000" text-anchor="middle" style="white-space: pre;" direction="ltr">subnet1</text></g><g transform="translate(133.63890592108908 414.5227140535733) rotate(0 18.5 5.5)"><text x="18.5" y="8" font-family="Virgil, Segoe UI Emoji" font-size="9.358504112198686px" fill="#000000" text-anchor="middle" style="white-space: pre;" direction="ltr">subnet2</text></g><g transform="translate(491.2817630639462 410.95128548214467) rotate(0 18 5.5)"><text x="18" y="8" font-family="Virgil, Segoe UI Emoji" font-size="9.358504112198686px" fill="#000000" text-anchor="middle" style="white-space: pre;" direction="ltr">subnet3</text></g><g transform="translate(337.97856221334143 286.10926304098575) rotate(0 24.800035897326552 5.8490650701241975)"><text x="0" y="8.698130140248368" font-family="Virgil, Segoe UI Emoji" font-size="9.35850411219869px" fill="#000000" text-anchor="start" style="white-space: pre;" direction="ltr">10.0.1.0/24</text></g><g transform="translate(150.12141935619843 432.5378344695572) rotate(0 27 5.5)"><text x="0" y="8" font-family="Virgil, Segoe UI Emoji" font-size="9.35850411219869px" fill="#000000" text-anchor="start" style="white-space: pre;" direction="ltr">10.0.2.0/24</text></g><g transform="translate(507.26427649905565 428.9664058981286) rotate(0 26.5 5.5)"><text x="0" y="8" font-family="Virgil, Segoe UI Emoji" font-size="9.35850411219869px" fill="#000000" text-anchor="start" style="white-space: pre;" direction="ltr">10.0.3.0/24</text></g><g stroke-linecap="round" transform="translate(331.31645364043777 218.7822135639758) rotate(0 18.10447296780751 15.035918227501156)"><path d="M0.37 -0.31 C12.46 0.41, 21.08 0.81, 37.46 0.22 M0.69 -0.27 C11.91 -0.43, 23.93 0.09, 36.39 0.71 M37.17 -1.24 C35.1 7.93, 37.11 14.04, 34.25 28.76 M36.47 -0.58 C35.19 8.78, 36.39 19.29, 36.5 30.32 M36.76 30.84 C30.55 30.4, 20.13 30.67, 0.25 31.35 M36.27 31.04 C26.99 30.57, 18.36 30.15, -0.7 29.52 M0.24 28.42 C-1.21 21.47, 0.13 15.82, -0.21 -1.77 M0.32 31.01 C-0.04 19.57, -1.04 7.83, -0.05 0.64" stroke="#000000" stroke-width="1" fill="none"></path></g><g stroke-linecap="round" transform="translate(145.60216792615188 355.21078499254725) rotate(0 18.10447296780751 15.035918227501156)"><path d="M1.28 0.99 C9.18 -0.02, 18.29 -0.19, 34.99 0.48 M-0.27 0.31 C11.52 -0.95, 24.73 -0.72, 36.95 0.87 M36.62 -1.82 C34.47 10.54, 35.14 20.89, 35.09 30.52 M36.22 -0.61 C35.29 10.42, 35.73 18.57, 37.13 30.4 M35.78 28.68 C25.78 30.98, 19.71 29.58, 0.95 28.64 M36.35 30.16 C25.36 30.6, 14.59 29.66, 0.12 29.31 M-1.57 31.58 C-1.77 20.49, -0.25 10.55, 0.94 0.61 M0.06 29.63 C0.59 18.95, 0.04 9.05, 0.08 -0.97" stroke="#000000" stroke-width="1" fill="none"></path></g><g stroke-linecap="round" transform="translate(502.0307393547233 355.92507070683297) rotate(0 18.10447296780751 15.035918227501156)"><path d="M0.18 -1.45 C9.92 1.5, 16.61 1.75, 34.85 -0.43 M0.82 -0.35 C12.37 0.44, 24.01 0.13, 35.54 0.36 M34.91 0.26 C35.99 8.02, 37.33 16.58, 37.24 29.2 M35.57 0.72 C34.97 10.58, 35.32 21.15, 36.38 29.71 M35.72 28.47 C27.98 28.51, 18.53 31.31, -1.89 29.79 M36.52 29.67 C28.1 29.83, 20.62 29.8, -0.98 29.11 M0.92 30.76 C0.88 20.86, 0.71 14.04, -0.29 0.33 M0.44 30.1 C-0.45 20.31, -0.32 9.98, 0.89 0.2" stroke="#000000" stroke-width="1" fill="none"></path></g><g stroke-linecap="round" transform="translate(333.101794580252 252.3317453913255) rotate(0 16.73757131076195 4.277379334972494)"><path d="M-0.21 -1.77 C9.06 1.56, 14.45 0.66, 35.35 0.38 M-0.05 0.64 C13.62 0.41, 25.56 -0.93, 34.26 -0.36 M34.08 -0.05 C33.07 2.84, 32.75 5.06, 33.45 9.36 M33.13 -0.02 C33.13 3.03, 33.33 5.62, 33.4 8.93 M32.55 6.88 C21.82 8.52, 11.12 9.34, -1.93 7.57 M32.53 8.04 C23.81 9.2, 14.64 8.22, -0.75 7.98 M0.15 8.96 C0.69 5.35, 0.47 3.3, -0.38 0.13 M-0.25 8.34 C-0.41 5.55, 0.43 3.31, -0.35 -0.18" stroke="#000000" stroke-width="1" fill="none"></path></g><g stroke-linecap="round" transform="translate(147.38750886596608 388.76031681989696) rotate(0 16.73757131076195 4.277379334972494)"><path d="M0.99 -0.36 C7.43 -0.99, 14.84 -1.43, 33.96 0.66 M0.31 -0.53 C5.99 0.72, 12.97 0.83, 34.35 0.27 M32.7 -0.77 C33.81 2.23, 34.03 4.94, 33.67 8.7 M33.21 -0.32 C33.92 1.94, 33.33 4.53, 33.61 8.3 M32.09 6.82 C23.03 9.37, 10.41 9.43, -1.43 8.32 M33.56 8.14 C20.57 7.85, 6.34 8.72, -0.77 8.52 M0.65 7.89 C-0.21 5.33, -0.65 2.53, 0.26 0.52 M-0.19 8.79 C-0.15 6.12, 0.26 3.72, -0.42 -0.34" stroke="#000000" stroke-width="1" fill="none"></path></g><g stroke-linecap="round" transform="translate(503.8160802945375 389.4746025341827) rotate(0 16.73757131076195 4.277379334972494)"><path d="M-1.45 1.77 C9.98 0.27, 18.76 -1.39, 33.04 0.44 M-0.35 0.72 C13.77 0.43, 26.7 -0.94, 33.83 -0.55 M33.59 -0.11 C33.76 3.12, 34.27 5.75, 33.1 8.89 M33.78 -0.42 C33.59 1.53, 33.76 3.66, 33.32 8.29 M31.87 8.93 C24.7 8.02, 19.94 6.58, -0.29 6.77 M33.07 8.08 C22.3 8.34, 11.61 7.68, -0.96 8.54 M0.29 8.85 C-0.01 6.75, 0.91 4.38, 0.14 0.3 M0.01 8.25 C0.15 6.47, 0.04 5.27, 0.08 -0.05" stroke="#000000" stroke-width="1" fill="none"></path></g><g stroke-linecap="round" transform="translate(335.3334707550207 253.81952950783852) rotate(0 0.929865072820121 0.929865072820121)"><path d="M-0.02 -0.07 C0.32 -0.12, 1.01 -0.15, 1.69 0.03 M0.04 0.08 C0.61 0.02, 1.31 -0.01, 1.9 -0.05 M2.04 0.12 C1.69 0.39, 1.94 0.96, 1.94 1.74 M1.9 -0.01 C1.84 0.66, 1.83 1.19, 1.83 1.94 M2.04 1.72 C1.13 1.82, 0.49 1.81, 0.16 1.69 M1.93 1.92 C1.42 1.91, 1.02 1.84, -0.06 1.8 M0.11 1.7 C-0.04 1.35, -0.15 0.86, -0.03 0.1 M0.02 1.77 C-0.07 1.18, -0.06 0.58, -0.09 -0.07" stroke="#000000" stroke-width="1" fill="none"></path></g><g stroke-linecap="round" transform="translate(149.6191850407348 390.24810093640997) rotate(0 0.929865072820121 0.929865072820121)"><path d="M-0.03 -0.01 C0.42 -0.04, 0.86 0.04, 1.92 -0.18 M-0.05 -0.07 C0.72 -0.05, 1.39 0.08, 1.89 0.02 M1.69 0.06 C1.76 0.75, 1.76 1.33, 1.89 1.75 M1.79 0.08 C1.83 0.65, 1.95 1.41, 1.8 1.89 M1.7 1.93 C1.33 1.79, 0.72 1.71, -0.02 2.04 M1.82 1.9 C1.16 1.81, 0.6 1.79, 0 1.93 M-0.14 1.8 C0.01 1.29, 0.1 1.09, 0.11 -0.03 M0.05 1.84 C0 1.27, 0.01 0.47, -0.07 -0.06" stroke="#000000" stroke-width="1" fill="none"></path></g><g stroke-linecap="round" transform="translate(506.04775646930614 390.9623866506957) rotate(0 0.929865072820121 0.929865072820121)"><path d="M0.16 0.13 C0.55 0.17, 0.92 -0.03, 1.9 0.18 M0.07 0.05 C0.67 0.03, 1.15 0.04, 1.81 0.01 M1.84 0.06 C1.95 0.74, 1.94 1.06, 1.93 1.69 M1.77 0.04 C1.79 0.52, 1.86 0.87, 1.8 1.79 M1.89 1.75 C1.43 1.99, 0.91 1.82, -0.17 1.89 M1.82 1.81 C1.14 1.8, 0.38 1.76, 0 1.8 M0.06 1.84 C0.04 1.67, -0.04 1.14, 0.06 -0.16 M-0.07 1.89 C-0.06 1.35, 0.07 0.85, -0.01 0.05" stroke="#000000" stroke-width="1" fill="none"></path></g><g stroke-linecap="round" transform="translate(335.5789551342451 257.1335686273694) rotate(0 0.929865072820121 0.929865072820121)"><path d="M0.1 0.01 C0.53 0.08, 1.02 -0.14, 1.74 -0.18 M0.06 0.07 C0.52 0.02, 1.19 -0.05, 1.88 0 M1.9 -0.13 C1.73 0.38, 1.81 0.7, 1.91 1.82 M1.8 0.05 C1.88 0.61, 1.79 1.03, 1.82 1.84 M1.91 2.03 C1.22 1.79, 0.52 1.81, -0.12 2.03 M1.78 1.94 C1.11 1.9, 0.4 1.84, -0.08 1.82 M0.16 1.98 C0.04 1.2, 0.1 0.66, -0.04 -0.1 M0.08 1.85 C0.01 1.41, -0.07 0.91, 0.06 0" stroke="#000000" stroke-width="1" fill="none"></path></g><g stroke-linecap="round" transform="translate(149.86466941995923 393.56214005594086) rotate(0 0.929865072820121 0.929865072820121)"><path d="M-0.01 -0.07 C0.65 -0.11, 1.4 0.06, 1.68 0.1 M-0.07 0.06 C0.46 0.08, 1.1 0.04, 1.88 0.04 M1.92 -0.1 C1.95 0.49, 1.88 1.22, 1.75 1.99 M1.94 -0.03 C1.8 0.65, 1.88 1.06, 1.89 1.89 M1.93 1.94 C1.29 1.93, 0.69 1.82, 0.18 1.94 M1.9 1.79 C1.22 1.86, 0.62 1.85, 0.07 1.79 M-0.06 1.86 C-0.17 1.54, 0.04 1.15, -0.03 0.09 M-0.02 1.86 C0.07 1.3, -0.08 0.65, -0.06 0.04" stroke="#000000" stroke-width="1" fill="none"></path></g><g stroke-linecap="round" transform="translate(506.2932408485307 394.2764257702266) rotate(0 0.929865072820121 0.929865072820121)"><path d="M0.13 0.03 C0.73 -0.14, 1.11 0.02, 2.04 0.05 M0.05 0.07 C0.73 -0.08, 1.45 -0.06, 1.87 0.01 M1.92 0.1 C2.03 0.53, 1.78 0.95, 1.69 1.75 M1.9 -0.06 C1.95 0.46, 1.84 0.82, 1.79 1.77 M1.75 1.82 C1.49 1.69, 0.81 1.7, 0.03 1.99 M1.81 1.83 C1.19 1.76, 0.54 1.85, -0.06 1.77 M-0.02 1.91 C0.17 1.19, 0.02 0.64, -0.16 -0.05 M0.03 1.81 C0 1.3, 0.02 0.57, 0.05 0.05" stroke="#000000" stroke-width="1" fill="none"></path></g><g stroke-linecap="round" transform="translate(349.75567803445915 253.81952950783852) rotate(0 0.929865072820121 0.929865072820121)"><path d="M0.03 -0.17 C0.77 -0.03, 1.56 0.15, 1.83 -0.12 M0.08 -0.08 C0.66 -0.06, 1.43 -0.06, 1.9 0.03 M1.75 0.05 C1.72 0.85, 1.89 1.37, 1.89 1.75 M1.81 0.05 C1.93 0.48, 1.84 0.73, 1.85 1.82 M1.97 2.01 C1.29 2.02, 0.39 1.74, -0.17 1.81 M1.9 1.78 C1.36 1.93, 0.72 1.84, -0.07 1.82 M0.06 1.87 C-0.07 1.41, -0.04 0.75, -0.16 0.17 M0 1.95 C-0.07 1.26, 0.08 0.71, -0.01 0.08" stroke="#000000" stroke-width="1" fill="none"></path></g><g stroke-linecap="round" transform="translate(164.04139232017326 390.24810093640997) rotate(0 0.929865072820121 0.929865072820121)"><path d="M-0.07 -0.03 C0.54 0.05, 1.36 -0.18, 1.96 -0.05 M0.06 -0.05 C0.68 0.1, 1.26 0.03, 1.9 0.02 M1.76 0.11 C1.74 0.43, 1.87 0.67, 1.99 1.86 M1.83 -0.05 C1.93 0.47, 1.79 0.92, 1.89 1.84 M1.94 1.8 C1.52 1.73, 0.98 2.05, 0.08 1.89 M1.79 1.81 C1.3 1.8, 0.71 1.94, -0.07 1.79 M0 1.7 C0.1 1.22, 0.13 0.43, 0.09 0.01 M0 1.93 C0 1.29, -0.08 0.85, 0.04 -0.04" stroke="#000000" stroke-width="1" fill="none"></path></g><g stroke-linecap="round" transform="translate(520.4699637487446 390.9623866506957) rotate(0 0.929865072820121 0.929865072820121)"><path d="M0.03 0.16 C0.3 -0.05, 0.89 0.16, 1.91 0.15 M0.07 0.02 C0.43 0.02, 0.94 0, 1.87 -0.06 M1.96 0.17 C1.95 0.5, 1.93 1, 1.75 1.74 M1.8 0.07 C1.86 0.66, 1.78 1.31, 1.77 1.84 M1.82 2.01 C1.27 1.82, 0.88 1.88, 0.14 1.92 M1.83 1.81 C1.29 1.76, 0.89 1.79, -0.09 1.9 M0.05 2.04 C-0.03 1.27, 0.06 0.46, -0.05 0.08 M-0.05 1.86 C0.1 1.31, 0 0.78, 0.05 0.05" stroke="#000000" stroke-width="1" fill="none"></path></g><g stroke-linecap="round" transform="translate(350.0011624136836 257.1335686273694) rotate(0 0.929865072820121 0.929865072820121)"><path d="M0.01 -0.04 C0.74 -0.12, 1.2 -0.13, 1.68 0 M0.07 -0.04 C0.45 0.06, 0.82 0.01, 1.86 -0.09 M1.73 -0.15 C1.88 0.63, 1.81 1.44, 1.82 1.84 M1.91 0.01 C1.95 0.56, 1.83 1.23, 1.84 1.93 M2.03 1.92 C1.37 1.91, 0.95 1.75, 0.17 2.04 M1.94 1.84 C1.24 1.85, 0.52 1.76, -0.04 1.84 M0.12 1.91 C-0.13 1.26, -0.15 0.39, -0.1 -0.12 M-0.01 1.87 C-0.02 1.23, -0.08 0.81, 0 -0.04" stroke="#000000" stroke-width="1" fill="none"></path></g><g stroke-linecap="round" transform="translate(164.28687669939768 393.56214005594086) rotate(0 0.929865072820121 0.929865072820121)"><path d="M-0.03 -0.11 C0.57 0.07, 0.87 0.11, 1.81 0.06 M-0.05 0.07 C0.54 0.01, 0.93 0.03, 1.88 -0.08 M1.97 -0.1 C1.91 0.42, 1.76 0.92, 1.86 1.75 M1.81 0.09 C1.91 0.36, 1.91 0.87, 1.84 1.8 M1.8 1.95 C1.33 1.85, 1.25 1.94, 0.03 1.88 M1.81 1.87 C1.31 1.84, 0.97 1.77, -0.07 1.93 M-0.16 1.95 C0.06 1.56, -0.02 1.12, 0.01 -0.08 M0.07 1.87 C-0.09 1.13, -0.06 0.58, -0.04 0.09" stroke="#000000" stroke-width="1" fill="none"></path></g><g stroke-linecap="round" transform="translate(520.7154481279689 394.2764257702266) rotate(0 0.929865072820121 0.929865072820121)"><path d="M0.16 -0.13 C0.68 0.04, 1.62 0.05, 2.01 -0.06 M0.02 -0.06 C0.72 -0.06, 1.39 -0.01, 1.8 0.01 M2.03 0.1 C1.79 0.61, 1.7 0.96, 1.74 1.99 M1.93 0.02 C1.83 0.32, 1.8 0.67, 1.84 1.79 M2.01 1.68 C1.24 1.69, 0.71 1.99, 0.06 1.78 M1.81 1.77 C1.3 1.85, 0.86 1.76, 0.04 1.89 M0.18 1.83 C0.03 1.3, -0.16 0.57, 0.08 0.01 M0 1.94 C0.01 1.42, 0.04 1.06, 0.05 0.07" stroke="#000000" stroke-width="1" fill="none"></path></g><g stroke-linecap="round" transform="translate(342.6366310369459 253.88090060264392) rotate(0 0.929865072820121 0.929865072820121)"><path d="M0.17 0.04 C0.46 -0.04, 1.14 0.12, 1.87 0.1 M-0.06 -0.08 C0.49 0.04, 0.97 0.01, 1.86 -0.02 M1.97 -0.09 C1.77 0.56, 1.75 0.95, 1.69 1.9 M1.79 -0.04 C1.92 0.5, 1.77 0.84, 1.94 1.83 M1.83 1.77 C1.16 1.74, 0.4 1.94, 0.09 1.88 M1.86 1.81 C1.51 1.83, 1.08 1.92, 0.01 1.93 M0.13 1.91 C0.05 1.43, -0.12 0.76, -0.02 0.18 M0.03 1.84 C0.02 1.12, -0.04 0.43, 0.05 -0.06" stroke="#000000" stroke-width="1" fill="none"></path></g><g stroke-linecap="round" transform="translate(156.92234532266002 390.30947203121536) rotate(0 0.929865072820121 0.929865072820121)"><path d="M-0.11 0.04 C0.6 -0.18, 1.19 -0.05, 1.92 -0.1 M0.07 0.08 C0.44 0.03, 0.88 0.03, 1.78 -0.08 M1.76 0.04 C1.88 0.51, 1.98 1.25, 1.75 1.72 M1.95 0.03 C1.8 0.76, 1.88 1.43, 1.8 1.78 M1.95 1.73 C1.21 2.03, 0.67 1.88, 0.02 1.78 M1.87 1.79 C1.23 1.92, 0.53 1.78, 0.07 1.79 M0.09 1.92 C0.11 1.33, 0.09 0.88, -0.08 0.1 M0.01 1.77 C-0.07 1.29, 0.04 0.8, 0.09 0.01" stroke="#000000" stroke-width="1" fill="none"></path></g><g stroke-linecap="round" transform="translate(513.3509167512312 391.0237577455011) rotate(0 0.929865072820121 0.929865072820121)"><path d="M-0.13 -0.04 C0.73 0.16, 1.43 0.14, 1.8 0.13 M-0.06 0.03 C0.61 0.01, 1.32 -0.06, 1.87 -0.01 M1.96 -0.08 C1.94 0.45, 1.76 1.12, 1.99 1.68 M1.88 -0.03 C1.79 0.56, 1.76 1.24, 1.79 1.88 M1.68 1.83 C1.25 1.91, 1.11 1.93, -0.08 1.77 M1.77 1.77 C1.39 1.79, 0.84 1.89, 0.03 1.89 M-0.03 1.89 C0.06 1.16, -0.05 0.87, 0.01 -0.13 M0.08 1.88 C0 1.29, 0.06 0.68, 0.07 0.09" stroke="#000000" stroke-width="1" fill="none"></path></g><g stroke-linecap="round" transform="translate(342.8821154161726 257.1949397221772) rotate(0 0.929865072820121 0.929865072820121)"><path d="M-0.04 0.07 C0.36 -0.15, 0.82 -0.19, 1.86 -0.12 M-0.04 0 C0.51 -0.08, 0.9 -0.01, 1.77 0.07 M1.71 0 C1.8 0.65, 1.92 1.38, 1.84 1.94 M1.87 0.08 C1.77 0.67, 1.81 1.39, 1.93 1.8 M1.92 1.8 C1.41 1.83, 0.74 2.05, 0.18 1.96 M1.84 1.9 C1.37 1.86, 0.81 1.83, -0.02 1.94 M0.05 1.72 C0.1 1.22, -0.06 0.8, -0.12 0 M0.01 1.84 C-0.09 1.19, 0.05 0.67, -0.04 0.07" stroke="#000000" stroke-width="1" fill="none"></path></g><g stroke-linecap="round" transform="translate(157.16782970188672 393.62351115074864) rotate(0 0.929865072820121 0.929865072820121)"><path d="M0.04 0.06 C0.3 0.11, 0.92 0.07, 1.76 -0.14 M0.08 0.03 C0.69 0.03, 1.37 -0.1, 1.78 0.03 M1.9 0.03 C1.76 0.59, 1.87 0.79, 1.72 2.03 M1.89 -0.06 C1.88 0.53, 1.83 0.94, 1.78 1.9 M1.73 1.84 C1.4 1.94, 0.61 1.88, -0.08 1.93 M1.79 1.86 C1.51 1.79, 0.95 1.93, -0.07 1.83 M0.06 1.97 C-0.01 1.4, 0.03 0.67, 0.1 -0.05 M-0.09 1.79 C-0.07 1.34, -0.05 0.84, 0.01 0.05" stroke="#000000" stroke-width="1" fill="none"></path></g><g stroke-linecap="round" transform="translate(513.596401130458 394.33779686503436) rotate(0 0.929865072820121 0.929865072820121)"><path d="M-0.04 0.04 C0.76 0.06, 1.32 -0.05, 1.99 0.1 M0.03 -0.05 C0.7 0.02, 1.32 0.02, 1.85 0.03 M1.78 0.07 C1.71 0.55, 1.76 1.45, 1.68 1.93 M1.83 -0.06 C1.81 0.36, 1.85 0.81, 1.88 1.8 M1.83 1.69 C1.38 1.98, 0.89 1.77, -0.09 1.77 M1.77 1.86 C1.3 1.75, 0.91 1.87, 0.03 1.85 M0.03 1.92 C-0.18 1.21, 0.06 0.65, -0.13 0.06 M0.02 1.85 C0.04 1.46, 0.05 1.02, 0.09 -0.01" stroke="#000000" stroke-width="1" fill="none"></path></g><g stroke-linecap="round" transform="translate(357.05883831638823 253.88090060264392) rotate(0 0.929865072820121 0.929865072820121)"><path d="M-0.17 0.05 C0.72 0.12, 1.62 -0.04, 1.74 0.12 M-0.08 -0.02 C0.52 0.04, 1.1 0.03, 1.89 0.09 M1.91 -0.16 C1.98 0.74, 1.77 1.47, 1.75 1.7 M1.91 0.07 C1.95 0.53, 1.8 1.07, 1.82 1.91 M2.01 1.94 C1.45 1.69, 0.58 1.7, -0.05 1.88 M1.78 1.94 C1.3 1.87, 0.58 1.8, -0.04 1.86 M0.01 1.79 C0.12 1.27, 0.02 0.61, 0.17 0.04 M0.09 1.8 C0.01 1.32, 0.07 0.61, 0.08 -0.03" stroke="#000000" stroke-width="1" fill="none"></path></g><g stroke-linecap="round" transform="translate(171.34455260210234 390.30947203121536) rotate(0 0.929865072820121 0.929865072820121)"><path d="M0.06 -0.18 C0.63 -0.05, 1.11 -0.1, 1.72 0.12 M0.03 0.02 C0.5 0, 0.84 -0.1, 1.89 -0.05 M1.89 -0.11 C1.98 0.67, 1.74 1.2, 2.03 1.8 M1.8 0.03 C1.91 0.45, 1.81 0.85, 1.9 1.9 M1.84 2.04 C1.43 1.87, 0.87 1.77, 0.07 1.72 M1.86 1.93 C1.33 1.77, 1.02 1.77, -0.03 1.86 M0.11 1.83 C0.08 1.47, -0.09 1.15, -0.05 0 M-0.07 1.8 C0.03 1.13, 0.09 0.49, 0.05 -0.09" stroke="#000000" stroke-width="1" fill="none"></path></g><g stroke-linecap="round" transform="translate(527.7731240306736 391.0237577455011) rotate(0 0.929865072820121 0.929865072820121)"><path d="M0.04 0.18 C0.76 0.16, 1.36 0.14, 1.96 0.13 M-0.05 0.01 C0.61 -0.07, 1.21 -0.02, 1.89 0.05 M1.93 -0.17 C1.76 0.61, 2 1.28, 1.93 1.75 M1.8 -0.07 C1.78 0.68, 1.79 1.43, 1.8 1.84 M1.69 1.89 C1.29 1.91, 0.38 1.77, -0.09 1.8 M1.86 1.8 C1.31 1.88, 0.97 1.87, -0.01 1.88 M0.06 1.7 C-0.04 1.21, 0.01 0.25, 0.06 -0.11 M-0.01 1.9 C0.03 1.34, 0.05 0.82, -0.01 0.06" stroke="#000000" stroke-width="1" fill="none"></path></g><g stroke-linecap="round" transform="translate(357.3043226956106 257.1949397221772) rotate(0 0.929865072820121 0.929865072820121)"><path d="M0.07 -0.11 C0.52 -0.11, 1.14 0, 1.74 -0.12 M0 0.07 C0.62 0.03, 1.37 -0.08, 1.93 0.08 M1.86 -0.06 C1.78 0.65, 1.81 1.17, 1.94 2.01 M1.94 -0.08 C1.83 0.41, 1.85 0.96, 1.8 1.83 M1.8 1.9 C1.21 1.75, 0.82 2.04, 0.1 1.79 M1.9 1.86 C1.45 1.78, 1.04 1.84, 0.08 1.82 M-0.14 1.97 C-0.17 1.1, -0.11 0.3, 0 0.04 M-0.02 1.79 C-0.07 1.2, 0.01 0.38, 0.07 -0.09" stroke="#000000" stroke-width="1" fill="none"></path></g><g stroke-linecap="round" transform="translate(171.59003698132472 393.62351115074864) rotate(0 0.929865072820121 0.929865072820121)"><path d="M-0.18 0.1 C0.39 0.05, 0.79 -0.15, 1.98 -0.1 M0.02 0.04 C0.71 -0.09, 1.31 0.03, 1.81 0.06 M1.75 0.13 C1.87 0.34, 1.73 1.07, 1.8 1.77 M1.89 0.03 C1.85 0.66, 1.79 1.5, 1.9 1.83 M2.04 1.94 C1.24 1.87, 0.49 1.93, -0.14 1.76 M1.93 1.79 C1.21 1.93, 0.63 1.83, 0 1.78 M-0.03 1.95 C0.01 1.13, 0.09 0.52, 0 0.13 M-0.06 1.9 C-0.02 1.38, 0.03 0.76, -0.09 0.05" stroke="#000000" stroke-width="1" fill="none"></path></g><g stroke-linecap="round" transform="translate(528.018608409896 394.33779686503436) rotate(0 0.929865072820121 0.929865072820121)"><path d="M0.18 0.05 C0.58 -0.07, 1 0.1, 1.99 0.04 M0.01 0.01 C0.37 0.02, 0.85 0.04, 1.91 0.09 M1.69 -0.11 C1.73 0.79, 1.67 1.38, 1.75 2.01 M1.79 -0.09 C1.83 0.51, 1.87 1.12, 1.84 1.93 M1.89 1.99 C1.54 1.77, 1.01 1.75, -0.06 1.76 M1.8 1.77 C1.53 1.89, 1.14 1.85, 0.02 1.95 M-0.16 1.81 C0.08 1.34, -0.13 0.86, -0.11 0.01 M0.05 1.91 C0.04 1.2, 0.08 0.4, 0.06 0.08" stroke="#000000" stroke-width="1" fill="none"></path></g><g stroke-linecap="round" transform="translate(338.93204858683237 253.63727595356437) rotate(0 0.929865072820121 0.929865072820121)"><path d="M0.16 -0.08 C0.72 0.03, 1.36 0.08, 1.75 -0.09 M0.06 -0.08 C0.34 0.03, 0.77 0.02, 1.8 0.01 M1.84 -0.07 C2.04 0.62, 1.95 1.38, 2.01 1.98 M1.79 -0.02 C1.84 0.69, 1.84 1.47, 1.77 1.81 M1.98 1.9 C1.46 2.04, 0.82 1.76, -0.13 1.88 M1.78 1.84 C1.23 1.8, 0.62 1.86, 0.05 1.88 M-0.17 1.74 C-0.16 1.11, -0.13 0.4, -0.14 -0.04 M0 1.86 C0.06 1.22, -0.01 0.34, 0.06 0.09" stroke="#000000" stroke-width="1" fill="none"></path></g><g stroke-linecap="round" transform="translate(153.21776287254647 390.0658473821358) rotate(0 0.929865072820121 0.929865072820121)"><path d="M0.1 -0.05 C0.66 -0.08, 1.07 0.14, 1.76 0.14 M0.04 0.02 C0.64 -0.09, 1.47 -0.06, 1.92 -0.05 M1.99 0 C1.75 0.46, 2.03 1.14, 1.77 2.03 M1.89 -0.02 C1.78 0.54, 1.89 1.28, 1.83 1.9 M1.94 1.89 C1.45 1.8, 1.08 1.74, -0.1 1.88 M1.79 1.79 C1.51 1.8, 1 1.87, -0.08 1.9 M0.09 1.87 C-0.09 1.35, -0.06 0.63, 0.13 0.01 M0.04 1.82 C0.1 1.5, 0.06 1.02, 0.05 -0.07" stroke="#000000" stroke-width="1" fill="none"></path></g><g stroke-linecap="round" transform="translate(509.6463343011179 390.78013309642154) rotate(0 0.929865072820121 0.929865072820121)"><path d="M0.05 0.15 C0.45 0.12, 1.14 0.11, 1.9 -0.12 M0.01 -0.06 C0.64 -0.01, 1.28 0.05, 1.95 0.05 M1.75 -0.12 C2 0.3, 1.94 0.84, 2.01 1.89 M1.77 -0.02 C1.77 0.51, 1.79 0.96, 1.93 1.77 M1.99 1.92 C1.25 1.77, 0.7 1.8, -0.1 1.68 M1.77 1.9 C1.51 1.88, 1.09 1.87, 0.09 1.85 M-0.05 1.94 C0 1.14, 0.05 0.58, 0.01 0.17 M0.05 1.91 C0.07 1.35, -0.01 0.74, 0.08 0.02" stroke="#000000" stroke-width="1" fill="none"></path></g><g stroke-linecap="round" transform="translate(339.1775329660559 256.9513150730971) rotate(0 0.929865072820121 0.929865072820121)"><path d="M-0.11 -0.15 C0.45 -0.19, 1.13 -0.12, 1.74 0.13 M0.07 -0.06 C0.72 0, 1.3 0.07, 1.94 0.02 M1.8 -0.06 C1.9 0.39, 1.82 0.94, 2.01 1.75 M1.78 -0.04 C1.82 0.63, 1.93 1.24, 1.83 1.88 M1.9 1.81 C1.02 2.03, 0.59 1.95, -0.07 1.69 M1.86 1.84 C1.06 1.83, 0.4 1.95, -0.04 1.94 M0.12 1.7 C-0.05 1.08, -0.13 0.49, 0.04 0.16 M-0.07 1.79 C0.06 1.33, -0.05 0.87, -0.09 -0.03" stroke="#000000" stroke-width="1" fill="none"></path></g><g stroke-linecap="round" transform="translate(153.46324725176999 393.3798865016685) rotate(0 0.929865072820121 0.929865072820121)"><path d="M-0.05 0.06 C0.52 -0.15, 1.36 -0.11, 2 0.16 M0.02 -0.08 C0.53 0.02, 1.17 0.05, 1.81 0.02 M1.86 -0.11 C1.71 0.76, 1.79 1.09, 2.03 1.92 M1.84 -0.06 C1.79 0.48, 1.91 0.87, 1.9 1.79 M1.89 1.88 C1.25 1.94, 0.65 1.76, 0.02 1.72 M1.79 1.93 C1.24 1.81, 0.75 1.77, 0.04 1.89 M0.01 1.78 C0.1 1.14, 0 0.65, 0.01 -0.18 M-0.04 1.95 C0.03 1.49, -0.08 1.09, -0.07 0.05" stroke="#000000" stroke-width="1" fill="none"></path></g><g stroke-linecap="round" transform="translate(509.8918186803413 394.09417221595425) rotate(0 0.929865072820121 0.929865072820121)"><path d="M0.15 -0.06 C0.73 0.1, 1.33 0.04, 1.73 0.07 M-0.06 0.01 C0.44 0.03, 0.96 0.08, 1.91 -0.04 M1.74 0.13 C1.66 0.7, 1.73 1.41, 1.89 1.79 M1.84 -0.07 C1.86 0.39, 1.82 0.96, 1.77 1.85 M1.92 1.78 C1.38 1.78, 1.02 1.77, -0.18 1.68 M1.9 1.89 C1.34 1.83, 0.77 1.93, -0.01 1.87 M0.08 1.87 C-0.12 1.29, -0.09 0.62, 0.17 0.04 M0.05 1.93 C0.08 1.31, 0.06 0.87, 0.02 -0.03" stroke="#000000" stroke-width="1" fill="none"></path></g><g stroke-linecap="round" transform="translate(353.3542558662749 253.63727595356437) rotate(0 0.929865072820121 0.929865072820121)"><path d="M0.05 -0.01 C0.87 0.18, 1.45 -0.11, 1.98 0.02 M-0.02 -0.06 C0.66 -0.04, 1.25 0.05, 1.95 0.08 M1.7 0.12 C1.86 0.43, 1.88 0.91, 1.7 1.84 M1.93 0.09 C1.84 0.5, 1.84 1.06, 1.91 1.87 M1.94 2.04 C1.28 1.77, 0.88 1.83, 0.02 1.93 M1.94 1.93 C1.29 1.82, 0.64 1.81, 0 1.85 M-0.07 1.97 C-0.04 1.41, -0.16 1.09, 0.04 0.06 M-0.06 1.86 C0.08 1.53, -0.01 1.19, -0.03 0.07" stroke="#000000" stroke-width="1" fill="none"></path></g><g stroke-linecap="round" transform="translate(167.63997015198902 390.0658473821358) rotate(0 0.929865072820121 0.929865072820121)"><path d="M0.06 -0.1 C0.23 0.12, 0.65 0.14, 2.02 0.05 M-0.08 -0.08 C0.62 -0.06, 1.23 -0.06, 1.88 0.02 M1.75 -0.14 C2.04 0.39, 1.78 1.07, 1.92 1.75 M1.8 -0.08 C1.9 0.67, 1.84 1.29, 1.79 1.85 M1.88 1.78 C1.19 1.72, 0.28 1.88, -0.14 1.85 M1.93 1.79 C1.13 1.84, 0.39 1.89, 0.03 1.92 M-0.08 1.96 C-0.06 1.33, 0.12 0.82, -0.18 -0.15 M0.09 1.87 C0.04 1.34, 0.04 0.92, 0.05 -0.05" stroke="#000000" stroke-width="1" fill="none"></path></g><g stroke-linecap="round" transform="translate(524.0685415805605 390.78013309642154) rotate(0 0.929865072820121 0.929865072820121)"><path d="M-0.06 0.13 C0.84 0.12, 1.51 -0.14, 1.93 -0.1 M0.01 -0.01 C0.61 0.06, 1.24 0.06, 1.82 0.04 M1.99 -0.18 C1.92 0.28, 2 0.81, 1.79 1.74 M1.79 0.02 C1.79 0.4, 1.92 0.75, 1.85 1.78 M1.78 1.77 C1.17 1.81, 0.58 1.68, -0.18 1.86 M1.89 1.89 C1.41 1.89, 1.07 1.85, 0.02 1.89 M0.01 1.73 C0.06 1.35, 0.01 1.23, 0.04 -0.02 M0.07 1.94 C-0.02 1.28, 0.07 0.59, -0.03 0.06" stroke="#000000" stroke-width="1" fill="none"></path></g><g stroke-linecap="round" transform="translate(353.5997402455 256.9513150730971) rotate(0 0.929865072820121 0.929865072820121)"><path d="M-0.15 -0.12 C0.34 0.01, 0.92 -0.11, 1.99 0.14 M-0.06 0.02 C0.49 -0.1, 1.04 0.06, 1.88 -0.06 M1.8 0.06 C1.83 0.39, 1.94 0.97, 1.75 1.95 M1.82 -0.04 C1.85 0.65, 1.81 1.14, 1.88 1.94 M1.81 1.74 C1.42 2.04, 0.73 1.79, -0.17 2.02 M1.84 1.78 C1.3 1.84, 0.91 1.82, 0.08 1.92 M-0.16 1.82 C-0.08 1.13, 0.01 0.68, 0.16 -0.03 M-0.07 1.92 C0.01 1.24, 0.07 0.62, -0.03 0.01" stroke="#000000" stroke-width="1" fill="none"></path></g><g stroke-linecap="round" transform="translate(167.88545453121412 393.3798865016685) rotate(0 0.929865072820121 0.929865072820121)"><path d="M-0.1 -0.14 C0.78 -0.1, 1.46 0.16, 1.91 0.03 M-0.08 0.03 C0.59 0.07, 1.23 0.04, 1.88 -0.05 M1.72 0.17 C1.8 0.6, 2.03 1.44, 1.75 1.93 M1.78 0.04 C1.9 0.59, 1.9 1.16, 1.85 1.95 M1.78 1.93 C1.09 1.76, 0.61 1.72, -0.01 2 M1.79 1.83 C1.44 1.8, 1.08 1.9, 0.06 1.85 M0.1 1.81 C0 1.34, 0.01 0.38, -0.15 -0.12 M0.01 1.91 C-0.08 1.28, -0.07 0.65, -0.05 -0.06" stroke="#000000" stroke-width="1" fill="none"></path></g><g stroke-linecap="round" transform="translate(524.3140259597855 394.09417221595425) rotate(0 0.929865072820121 0.929865072820121)"><path d="M0.13 0.1 C0.74 0.05, 1.09 0.07, 1.76 0.02 M-0.01 0.03 C0.62 0.08, 1.19 -0.04, 1.9 -0.08 M1.68 0.07 C1.73 0.6, 1.88 0.83, 1.74 1.72 M1.88 -0.06 C1.83 0.46, 1.77 0.76, 1.78 1.88 M1.77 1.77 C1.11 1.75, 0.29 1.67, 0 1.74 M1.89 1.85 C1.51 1.96, 1.1 1.88, 0.03 1.78 M-0.13 1.92 C-0.12 1.35, 0.16 0.87, -0.02 0.09 M0.09 1.85 C0.06 1.29, 0.02 0.52, 0.06 -0.05" stroke="#000000" stroke-width="1" fill="none"></path></g><g stroke-linecap="round" transform="translate(346.2352088687628 253.69864704837215) rotate(0 0.929865072820121 0.929865072820121)"><path d="M0.04 -0.19 C0.37 -0.16, 0.93 -0.01, 1.95 -0.06 M-0.08 0 C0.71 -0.01, 1.35 0.01, 1.84 -0.07 M1.77 -0.09 C2 0.43, 1.98 0.91, 1.9 1.73 M1.82 0.08 C1.94 0.31, 1.84 0.84, 1.83 1.93 M1.77 1.86 C1.19 1.81, 0.85 1.94, 0.02 1.72 M1.81 1.93 C1.33 1.91, 0.92 1.87, 0.07 1.85 M0.05 1.92 C0.12 1.07, -0.01 0.47, 0.18 0.18 M-0.02 1.87 C-0.02 1.33, 0.03 0.94, -0.06 0.02" stroke="#000000" stroke-width="1" fill="none"></path></g><g stroke-linecap="round" transform="translate(160.52092315447692 390.1272184769436) rotate(0 0.929865072820121 0.929865072820121)"><path d="M-0.14 0.12 C0.41 0.15, 1.18 0.06, 1.89 0.09 M0.03 -0.05 C0.65 -0.04, 1.21 0.03, 1.81 0.07 M2.03 -0.06 C1.76 0.73, 1.91 1.01, 1.93 1.92 M1.9 0.04 C1.82 0.56, 1.78 1.03, 1.95 1.9 M1.93 1.72 C1.17 1.87, 0.55 1.85, 0.14 1.72 M1.83 1.86 C1.37 1.89, 1.06 1.9, -0.01 1.91 M-0.05 1.86 C0.14 1.3, -0.17 0.57, -0.12 0.07 M0.05 1.77 C0.03 1.31, 0.03 0.85, -0.06 0" stroke="#000000" stroke-width="1" fill="none"></path></g><g stroke-linecap="round" transform="translate(516.9494945830482 390.8415041912293) rotate(0 0.929865072820121 0.929865072820121)"><path d="M0.1 0.13 C0.75 -0.14, 1.49 -0.12, 1.88 0.01 M0.03 0.05 C0.52 0.05, 0.83 0.04, 1.78 -0.05 M1.93 -0.11 C2.02 0.47, 1.8 0.76, 1.72 1.69 M1.8 -0.02 C1.92 0.42, 1.83 0.94, 1.88 1.93 M1.77 1.8 C1.15 1.67, 0.45 1.85, -0.12 1.67 M1.85 1.88 C1.31 1.85, 0.59 1.9, -0.08 1.84 M0.06 1.75 C0.01 1.38, 0.04 0.56, 0.09 0.1 M-0.01 1.92 C0.07 1.23, -0.04 0.62, -0.05 0.08" stroke="#000000" stroke-width="1" fill="none"></path></g><g stroke-linecap="round" transform="translate(346.48069324798814 257.0126861679025) rotate(0 0.929865072820121 0.929865072820121)"><path d="M-0.12 -0.18 C0.62 -0.1, 1.13 0.14, 2 -0.07 M0.02 0 C0.48 0.08, 1.21 0.03, 1.8 -0.07 M1.91 -0.03 C1.83 0.64, 2 1.01, 1.95 1.89 M1.82 -0.02 C1.91 0.65, 1.81 1.45, 1.94 1.89 M1.74 2.03 C1.54 1.96, 0.8 1.69, 0.16 1.82 M1.78 1.82 C1.2 1.93, 0.53 1.94, 0.06 1.89 M-0.04 1.76 C-0.13 1.44, 0.03 1.19, -0.03 0.02 M0.06 1.86 C-0.03 1.41, -0.08 0.78, 0.01 0.02" stroke="#000000" stroke-width="1" fill="none"></path></g><g stroke-linecap="round" transform="translate(160.76640753370225 393.4412575964739) rotate(0 0.929865072820121 0.929865072820121)"><path d="M0.12 -0.1 C0.75 0.18, 1.28 0.05, 1.94 0.04 M-0.05 0.06 C0.34 0.01, 0.79 -0.06, 1.93 0 M1.8 -0.09 C2.02 0.51, 1.73 0.96, 1.92 1.82 M1.9 -0.03 C1.89 0.36, 1.83 0.95, 1.9 1.87 M1.72 1.76 C1.31 1.72, 0.71 2.01, -0.14 1.71 M1.86 1.78 C1.21 1.88, 0.52 1.84, 0.05 1.87 M0 1.99 C0 1.2, -0.16 0.78, 0.07 -0.08 M-0.09 1.91 C-0.08 1.17, -0.05 0.33, 0 -0.03" stroke="#000000" stroke-width="1" fill="none"></path></g><g stroke-linecap="round" transform="translate(517.1949789622737 394.15554331075964) rotate(0 0.929865072820121 0.929865072820121)"><path d="M0.13 0.04 C0.37 0.06, 0.88 0.01, 1.87 -0.12 M0.05 0.09 C0.63 -0.05, 1.2 -0.09, 1.81 -0.06 M1.75 0.15 C1.87 0.62, 1.73 1.24, 1.69 1.81 M1.84 0.07 C1.78 0.4, 1.78 0.83, 1.93 1.89 M1.8 1.76 C1.2 1.67, 0.89 1.73, -0.19 1.95 M1.88 1.95 C1.22 1.87, 0.65 1.78, -0.02 1.9 M-0.11 1.87 C0.18 1.33, -0.01 0.82, 0.1 0.09 M0.06 1.94 C0.01 1.14, 0.05 0.43, 0.08 -0.01" stroke="#000000" stroke-width="1" fill="none"></path></g><g stroke-linecap="round" transform="translate(360.6574161482026 253.69864704837215) rotate(0 0.929865072820121 0.929865072820121)"><path d="M-0.01 0.12 C0.76 -0.04, 1.06 0.12, 1.88 0.04 M-0.06 0.06 C0.67 0.05, 1.48 0.09, 1.94 -0.02 M1.98 0.01 C1.78 0.47, 1.75 0.73, 1.84 1.85 M1.95 -0.01 C1.81 0.46, 1.83 0.98, 1.87 1.78 M2.04 1.68 C1.09 1.7, 0.48 1.88, 0.07 1.88 M1.93 1.86 C1.21 1.81, 0.55 1.88, -0.01 1.81 M0.11 1.82 C0.01 1.09, 0.16 0.67, 0.06 -0.18 M0 1.94 C0.03 1.29, 0.06 0.71, 0.07 -0.08" stroke="#000000" stroke-width="1" fill="none"></path></g><g stroke-linecap="round" transform="translate(174.94313043391674 390.1272184769436) rotate(0 0.929865072820121 0.929865072820121)"><path d="M-0.1 0.14 C0.62 0.04, 0.95 0.07, 1.9 -0.17 M0.06 -0.05 C0.41 0.03, 0.73 0.08, 1.86 -0.06 M1.77 0.17 C1.94 0.31, 1.94 0.9, 1.82 1.73 M1.83 0.04 C1.8 0.39, 1.96 0.83, 1.87 1.87 M1.76 1.88 C1.24 1.84, 1.04 1.7, -0.15 2 M1.78 1.9 C1.47 1.92, 1.02 1.91, 0.01 1.82 M0.13 1.87 C-0.18 1.06, -0.12 0.62, -0.08 0.18 M0.05 1.79 C0.04 1.23, -0.07 0.7, -0.03 -0.06" stroke="#000000" stroke-width="1" fill="none"></path></g><g stroke-linecap="round" transform="translate(531.3717018624881 390.8415041912293) rotate(0 0.929865072820121 0.929865072820121)"><path d="M0.04 -0.12 C0.76 -0.12, 1.4 0, 1.74 0.02 M0.09 0.05 C0.49 0.03, 0.98 -0.06, 1.8 0.07 M2.01 0.03 C1.8 0.26, 1.73 0.58, 1.81 1.71 M1.93 -0.09 C1.84 0.51, 1.87 1.25, 1.89 1.82 M1.76 1.68 C1.21 1.85, 0.8 1.67, 0.09 1.92 M1.95 1.85 C1.25 1.9, 0.54 1.84, 0.04 1.86 M0.01 2.03 C0.03 1.41, 0.08 1.11, 0.09 0.13 M0.08 1.88 C-0.02 1.2, -0.05 0.48, -0.01 0.07" stroke="#000000" stroke-width="1" fill="none"></path></g><g stroke-linecap="round" transform="translate(360.9029005274243 257.0126861679025) rotate(0 0.929865072820121 0.929865072820121)"><path d="M-0.18 0 C0.33 -0.11, 1.02 0.15, 1.79 0.01 M0 -0.09 C0.78 0.07, 1.43 -0.07, 1.79 0 M1.82 -0.02 C1.93 0.65, 1.74 1.09, 1.89 2.02 M1.84 0.07 C1.79 0.37, 1.88 0.89, 1.89 1.83 M2.03 2.04 C1.36 1.78, 0.49 2.01, -0.04 1.95 M1.82 1.84 C1.37 1.81, 0.81 1.91, 0.03 1.79 M-0.1 1.74 C0.01 1.23, 0.17 0.49, 0.02 -0.03 M0 1.82 C0.09 1.36, -0.02 1.05, 0.02 0.08" stroke="#000000" stroke-width="1" fill="none"></path></g><g stroke-linecap="round" transform="translate(175.18861481313843 393.4412575964739) rotate(0 0.929865072820121 0.929865072820121)"><path d="M0.14 0.16 C0.47 0.04, 0.92 0.05, 1.69 -0.17 M-0.05 0.02 C0.64 -0.07, 1.31 -0.01, 1.8 -0.07 M2.03 0.06 C1.74 0.79, 1.91 1.41, 1.73 1.7 M1.9 -0.07 C1.86 0.72, 1.91 1.28, 1.87 1.82 M1.88 1.72 C1.22 1.99, 0.46 1.7, 0.14 1.72 M1.9 1.89 C1.42 1.83, 0.91 1.85, -0.04 1.91 M0.01 1.68 C-0.15 1.23, 0.07 0.76, 0.18 0.03 M-0.07 1.91 C-0.03 1.15, 0.02 0.53, -0.06 -0.09" stroke="#000000" stroke-width="1" fill="none"></path></g><g stroke-linecap="round" transform="translate(531.6171862417096 394.15554331075964) rotate(0 0.929865072820121 0.929865072820121)"><path d="M-0.12 0.07 C0.56 0.02, 1.33 -0.13, 1.88 -0.02 M0.05 -0.04 C0.65 -0.1, 1.18 -0.08, 1.93 -0.09 M1.89 -0.07 C1.73 0.49, 1.68 1.22, 1.71 1.89 M1.77 -0.01 C1.77 0.46, 1.92 0.92, 1.82 1.82 M1.68 1.68 C1.39 1.73, 0.75 1.94, 0.06 1.92 M1.85 1.87 C1.36 1.8, 0.76 1.92, 0 1.79 M0.17 1.9 C-0.01 1.33, 0.11 0.72, 0.13 0.17 M0.02 1.83 C0.05 1.27, 0.07 0.78, 0.07 -0.04" stroke="#000000" stroke-width="1" fill="none"></path></g><g stroke-linecap="round" transform="translate(335.1656419277052 222.44156771960849) rotate(0 14.390463609712583 11.745157799103652)"><path d="M1.14 1.08 C9.37 1.84, 16.78 -0.14, 29.19 1.32 M0.97 -0.23 C11.55 0.5, 23.01 0.13, 29.28 0.52 M29.79 0.62 C28.29 7.7, 29.04 18.22, 28.96 23.87 M29.2 0.23 C28.43 9.52, 28.38 17.81, 27.85 23.38 M28.22 23.55 C19.81 22.56, 13.3 22.64, -1.7 22.44 M28.02 22.64 C19.85 24.14, 11.38 24.64, -0.68 24.21 M0.98 24.86 C1.5 18.56, -0.79 9.94, -0.31 1.16 M-0.68 24.48 C0.27 14.1, 0.65 4.7, -0.46 -0.73" stroke="#000000" stroke-width="1" fill="none"></path></g><g stroke-linecap="round" transform="translate(149.45135621341933 358.87013914817993) rotate(0 14.390463609712583 11.745157799103652)"><path d="M1.74 0.55 C10.78 0.7, 21.31 -2.03, 26.99 0.69 M0.23 0.17 C6.44 0.88, 14.06 -0.45, 28.04 0.89 M29.43 -1.2 C29.38 6.95, 28.24 11.29, 27.05 24.28 M28.07 -0.12 C29.68 8.5, 28.86 16.27, 28.37 23.87 M27.25 23.43 C23.81 21.98, 14.26 25.03, -1.54 22.84 M29.08 24.1 C20.03 24.13, 11.64 23.19, 0.54 23.23 M-1.95 21.92 C-1.49 17.24, -1 11.37, 0.29 1 M0.52 22.99 C-0.73 18.7, -0.47 13.18, -0.99 -0.44" stroke="#000000" stroke-width="1" fill="none"></path></g><g stroke-linecap="round" transform="translate(505.8799276419908 359.58442486246565) rotate(0 14.390463609712583 11.745157799103652)"><path d="M0.72 -1.1 C10.88 0.33, 20.04 0.45, 28.53 0.65 M-0.43 0.39 C9.3 -0.73, 19.77 0.57, 27.81 0.39 M28.05 -1.24 C27.48 3.75, 28.47 9.59, 29.16 22.27 M28.64 -0.89 C29.15 7.24, 29.28 12.62, 28.3 22.98 M26.86 23.46 C19.81 21.22, 14.28 23.89, 0.69 23.26 M28.94 23.84 C18.54 23.2, 10.45 23.48, -0.71 23.8 M0.39 23.25 C0.96 18.85, 0.99 13.53, 1.83 -0.25 M-0.28 24.17 C-0.76 15.68, -0.3 6.89, -0.41 0.49" stroke="#000000" stroke-width="1" fill="none"></path></g><g transform="translate(340.6572967905263 226.515338667947) rotate(0 8.898808746888449 7.6713868507658844)"><text x="8.898808746888442" y="10.342773701531758" font-family="Virgil, Segoe UI Emoji" font-size="12.274218961225436px" fill="#000000" text-anchor="middle" style="white-space: pre;" direction="ltr">vm1</text></g><g transform="translate(153.0561055374145 362.94391009651844) rotate(0 11.5 8)"><text x="11.5" y="11" font-family="Virgil, Segoe UI Emoji" font-size="12.274218961225436px" fill="#000000" text-anchor="middle" style="white-space: pre;" direction="ltr">Vm2</text></g><g transform="translate(509.2703912517003 362.94391009651844) rotate(0 11 8)"><text x="11" y="11" font-family="Virgil, Segoe UI Emoji" font-size="12.274218961225436px" fill="#000000" text-anchor="middle" style="white-space: pre;" direction="ltr">Vm3</text></g><g stroke-linecap="round" transform="translate(10 123.57142857142861) rotate(0 323.2142857142857 192.5)"><path d="M-0.66 0.39 C153.81 0.72, 306.74 0.68, 646.26 0.67 M0.14 0.04 C137.16 1.25, 274.26 1.17, 646.28 -0.19 M647.49 0.47 C647.78 80.87, 647.28 161.77, 645.53 384.41 M646.69 0.24 C644.79 130.76, 645.26 262.95, 646.56 385.2 M646.99 385.59 C481.11 381.96, 315.26 381.76, 0.55 384.5 M646.19 385.22 C444.61 386.32, 243.64 386.27, -0.18 385.09 M-0.24 384.52 C1.1 268.93, 0.43 151.64, -1.12 1.08 M0.02 384.48 C2.12 297.46, 1.53 208.99, -0.39 -0.38" stroke="#000000" stroke-width="1" fill="none"></path></g><g transform="translate(68.57142857142844 129.5714285714286) rotate(0 57.5 12.5)"><text x="0" y="18" font-family="Virgil, Segoe UI Emoji" font-size="20px" fill="#000000" text-anchor="start" style="white-space: pre;" direction="ltr">vnetdemo-rg</text></g><g stroke-linecap="round"><g transform="translate(303.57142857142856 258.5714285714286) rotate(0 -60.87536408390781 37.3360199707048)"><path d="M1.16 -0.69 C-19.19 11.68, -101.35 61.64, -121.78 74.23 M0.31 1.56 C-20.25 14.07, -102.5 62.95, -122.91 75.37" stroke="#000000" stroke-width="1" fill="none"></path></g></g><g stroke-linecap="round"><g transform="translate(407.8571428571429 260) rotate(0 60.01738602329908 37.11501638530285)"><path d="M-0.23 -0.32 C20.13 12.49, 101.44 63.21, 121.84 75.77 M-1.8 -1.54 C18.46 11.03, 100.51 61.07, 121.11 74.05" stroke="#000000" stroke-width="1" fill="none"></path></g></g><g stroke-linecap="round" transform="translate(254.2857142857141 9.999999999999993) rotate(0 76.42857142857139 36.07142857142857)"><path d="M80.78 0.89 C92.74 0.44, 106.24 1.68, 116.72 4.65 C127.2 7.63, 137.61 13.38, 143.66 18.75 C149.7 24.13, 153.13 31.16, 152.97 36.92 C152.81 42.67, 148.87 48.31, 142.7 53.27 C136.53 58.24, 126.38 63.39, 115.93 66.68 C105.48 69.98, 92.56 72.94, 79.99 73.05 C67.43 73.16, 51.71 70.34, 40.52 67.36 C29.34 64.39, 19.72 59.82, 12.9 55.21 C6.08 50.61, 0.73 45.26, -0.37 39.72 C-1.47 34.18, 1.14 27.41, 6.31 21.95 C11.47 16.5, 20.57 10.65, 30.61 6.99 C40.65 3.32, 56.34 1.06, 66.56 -0.05 C76.79 -1.16, 86.05 -0.33, 91.95 0.32 C97.86 0.96, 102.38 3.24, 101.98 3.83 M97.11 0.06 C108.56 1.04, 122.08 6.8, 131.07 11.4 C140.07 16, 147.93 22.31, 151.08 27.68 C154.24 33.05, 153.35 38.11, 150.01 43.63 C146.67 49.14, 139.29 56.33, 131.04 60.78 C122.78 65.23, 111.92 68.47, 100.49 70.34 C89.06 72.2, 74.63 73.34, 62.45 71.96 C50.28 70.59, 36.89 65.96, 27.42 62.09 C17.95 58.21, 10.11 54.13, 5.63 48.72 C1.16 43.32, -1.04 35.24, 0.59 29.66 C2.22 24.08, 7.95 19.69, 15.43 15.22 C22.91 10.75, 34.05 5.42, 45.46 2.82 C56.88 0.22, 75.43 -0.11, 83.92 -0.4 C92.42 -0.68, 94.35 0.73, 96.44 1.11 C98.52 1.5, 96.68 1.31, 96.41 1.91" stroke="#000000" stroke-width="1" fill="none"></path></g><g transform="translate(273.142857142857 31.428571428571402) rotate(0 59 12.5)"><text x="59" y="18" font-family="Virgil, Segoe UI Emoji" font-size="20px" fill="#000000" text-anchor="middle" style="white-space: pre;" direction="ltr">the internet</text></g><g stroke-linecap="round"><g transform="translate(338.57142857142856 83.57142857142858) rotate(0 0.22847907440302606 57.606364381541496)"><path d="M0.68 -0.78 C0.7 18.41, 0.91 95.42, 0.97 114.64 M-0.42 1.43 C-0.68 20.83, -0.3 96.96, -0.23 115.99" stroke="#000000" stroke-width="1" fill="none"></path></g><g transform="translate(338.57142857142856 83.57142857142858) rotate(0 0.22847907440302606 57.606364381541496)"><path d="M-11.9 87.07 C-7.45 97.56, -3.74 107.71, 1.24 116.27 M-10.42 88.59 C-9.06 94.29, -6.92 100.22, -0.19 116.44" stroke="#000000" stroke-width="1" fill="none"></path></g><g transform="translate(338.57142857142856 83.57142857142858) rotate(0 0.22847907440302606 57.606364381541496)"><path d="M8.62 86.99 C5.43 97.63, 1.51 107.8, 1.24 116.27 M10.1 88.51 C7.2 94.42, 5.08 100.36, -0.19 116.44" stroke="#000000" stroke-width="1" fill="none"></path></g></g></svg>